<?xml version="1.0" encoding="utf-8"?>
<!-- Generator: Adobe Illustrator 26.0.3, SVG Export Plug-In . SVG Version: 6.00 Build 0)  -->
<svg version="1.1" id="Layer_1" xmlns="http://www.w3.org/2000/svg" xmlns:xlink="http://www.w3.org/1999/xlink" x="0px" y="0px"
	 viewBox="0 0 250.2 120.2" style="enable-background:new 0 0 250.2 120.2;" xml:space="preserve">
<style type="text/css">
	.st0{fill:#45C2CC;}
	.st1{fill:#0F1231;}
	.st2{fill:#FFFFFF;}
	.st3{fill:#343F49;}
	.st4{fill:#77CDD3;}
	.st5{fill:#FDD700;}
	.st6{fill:#010101;}
</style>
<g id="header_x5F_logo_00000144325710168803345240000004928721015375602597_">
	<g>
		<rect id="logo_x5F_bg_00000173137145417757945630000016617352852545460099_" y="34.8" class="st0" width="250.2" height="85.4"/>
		<g id="logo_x5F_text_00000127030860207888284060000000035281040101391744_">
			<g id="logo_x5F_text_x5F_shadow_00000158022072621077981860000000765978126410952889_">
				<g id="logo_x5F_text_00000047767262002339033030000001412796589044423080_">
					<g>
						<path class="st1" d="M42.3,96.7c-0.6,3-1.9,5.3-3.9,6.9c-2,1.6-4.6,2.4-7.7,2.4c-4.4,0-7.7-1.5-10.1-4.5
							c-2.4-3-3.6-7.2-3.6-12.7c0-5.7,1.2-10,3.6-12.9c2.4-3,5.8-4.4,10.4-4.4c3.2,0,5.8,0.8,7.7,2.3c1.9,1.5,3.1,3.7,3.5,6.5h10.3
							C52.1,74.5,50,70,46.3,66.9c-3.7-3.1-8.8-4.7-15.3-4.7c-7.9,0-14,2.3-18.2,6.9c-4.2,4.6-6.4,11.2-6.4,19.8
							c0,8.4,2.1,15,6.2,19.7c4.1,4.7,10,7,17.5,7c6.5,0,11.8-1.7,15.8-5.1c4-3.4,6.2-7.9,6.6-13.7H42.3z"/>
						<path class="st1" d="M95.6,69.4c-4.5-4.8-10.5-7.2-18-7.2c-7.5,0-13.5,2.4-18,7.2c-4.5,4.8-6.7,11.3-6.7,19.4
							c0,8.2,2.2,14.6,6.7,19.4c4.5,4.8,10.5,7.2,18,7.2c7.5,0,13.6-2.4,18-7.2c4.5-4.8,6.7-11.3,6.7-19.4
							C102.3,80.7,100.1,74.2,95.6,69.4z M88,101.8c-2.5,3.1-6,4.6-10.5,4.6c-4.5,0-7.9-1.5-10.4-4.6c-2.5-3.1-3.7-7.4-3.7-13
							c0-5.6,1.2-9.9,3.7-13c2.5-3.1,5.9-4.6,10.4-4.6c4.5,0,8,1.5,10.5,4.6c2.5,3.1,3.7,7.4,3.7,13C91.8,94.4,90.5,98.7,88,101.8z"
							/>
						<path class="st1" d="M145.3,69.4c-4.5-4.8-10.5-7.2-18-7.2c-7.5,0-13.5,2.4-18,7.2c-4.5,4.8-6.7,11.3-6.7,19.4
							c0,8.2,2.2,14.6,6.7,19.4c4.5,4.8,10.5,7.2,18,7.2c7.5,0,13.6-2.4,18-7.2c4.5-4.8,6.7-11.3,6.7-19.4
							C152,80.7,149.8,74.2,145.3,69.4z M137.8,101.8c-2.5,3.1-6,4.6-10.5,4.6c-4.5,0-7.9-1.5-10.4-4.6c-2.5-3.1-3.7-7.4-3.7-13
							c0-5.6,1.2-9.9,3.7-13c2.5-3.1,5.9-4.6,10.4-4.6c4.5,0,8,1.5,10.5,4.6c2.5,3.1,3.7,7.4,3.7,13
							C141.5,94.4,140.3,98.7,137.8,101.8z"/>
						<polygon class="st1" points="164.9,104.7 164.9,63.5 154.5,63.5 154.5,114.1 189.6,114.1 189.6,104.7 						"/>
						<path class="st1" d="M214.3,63.5h-12l-18,50.6h11l3.3-10.4h19.6l3.4,10.4h10.9L214.3,63.5z M201.3,95.2l7-21.5l7,21.5H201.3z"
							/>
					</g>
				</g>
				<g>
					<g>
						<g>
							<path class="st1" d="M238.8,103.5c0.1,0,0.2,0,0.4,0h0.1c0.8,0,1.4,0.2,1.8,0.7c0.4,0.4,0.7,1,0.7,1.8c0,0.5-0.1,0.9-0.3,1.3
								c-0.2,0.4-0.5,0.6-0.9,0.8c0.4,0.1,0.6,0.3,0.8,0.6c0.2,0.3,0.3,0.7,0.3,1.2l0.1,1.3v0c0,0.6,0.1,0.9,0.4,1v0.3h-1.7
								c-0.1-0.1-0.1-0.3-0.1-0.4s-0.1-0.4-0.1-0.8l0-1.1c0-0.6-0.2-1-0.4-1.1s-0.6-0.3-1.1-0.3h-0.3h-2v3.7H235v-8.9H238.8z
								 M236.5,107.5h2.1c0.6,0,1.1-0.1,1.3-0.3c0.3-0.2,0.4-0.6,0.4-1.1c0-0.5-0.1-0.8-0.4-1c-0.3-0.2-0.7-0.3-1.3-0.3h-2.2V107.5z
								"/>
						</g>
					</g>
					<g>
						<g>
							<path class="st1" d="M238.5,115.7c-4.3,0-7.7-3.5-7.7-7.7s3.5-7.7,7.7-7.7c4.3,0,7.7,3.5,7.7,7.7S242.8,115.7,238.5,115.7z
								 M238.5,101.5c-3.6,0-6.5,2.9-6.5,6.5s2.9,6.5,6.5,6.5s6.5-2.9,6.5-6.5S242.1,101.5,238.5,101.5z"/>
						</g>
					</g>
				</g>
			</g>
			<g id="logo_x5F_text_x5F_original_00000034063736045866470650000001791857122621101241_">
				<g id="COOLA_00000085242386090763149530000017871356775143636410_">
					<path class="st2" d="M39.9,98c-0.6,3-1.9,5.3-3.9,6.9c-2,1.6-4.6,2.4-7.7,2.4c-4.4,0-7.7-1.5-10.1-4.5c-2.4-3-3.6-7.2-3.6-12.7
						c0-5.7,1.2-10,3.6-12.9c2.4-3,5.8-4.4,10.4-4.4c3.2,0,5.8,0.8,7.7,2.3c1.9,1.5,3.1,3.7,3.5,6.5H50c-0.4-5.8-2.4-10.2-6.2-13.4
						c-3.7-3.1-8.8-4.7-15.3-4.7c-7.9,0-14,2.3-18.2,6.9C6,74.9,3.9,81.5,3.9,90.1c0,8.4,2.1,15,6.2,19.7s10,7,17.5,7
						c6.5,0,11.8-1.7,15.8-5.1c4-3.4,6.2-7.9,6.6-13.7H39.9z"/>
					<path class="st2" d="M93.1,70.6c-4.5-4.8-10.5-7.2-18-7.2c-7.5,0-13.5,2.4-18,7.2c-4.5,4.8-6.7,11.3-6.7,19.4
						c0,8.2,2.2,14.6,6.7,19.4c4.5,4.8,10.5,7.2,18,7.2c7.5,0,13.6-2.4,18-7.2c4.5-4.8,6.7-11.3,6.7-19.4
						C99.8,81.9,97.6,75.4,93.1,70.6z M85.6,103.1c-2.5,3.1-6,4.6-10.5,4.6c-4.5,0-7.9-1.5-10.4-4.6c-2.5-3.1-3.7-7.4-3.7-13
						c0-5.6,1.2-9.9,3.7-13c2.5-3.1,5.9-4.6,10.4-4.6c4.5,0,8,1.5,10.5,4.6c2.5,3.1,3.7,7.4,3.7,13C89.3,95.7,88.1,100,85.6,103.1z"
						/>
					<path class="st2" d="M142.8,70.6c-4.5-4.8-10.5-7.2-18-7.2c-7.5,0-13.5,2.4-18,7.2c-4.5,4.8-6.7,11.3-6.7,19.4
						c0,8.2,2.2,14.6,6.7,19.4c4.5,4.8,10.5,7.2,18,7.2c7.5,0,13.6-2.4,18-7.2c4.5-4.8,6.7-11.3,6.7-19.4
						C149.6,81.9,147.3,75.4,142.8,70.6z M135.3,103.1c-2.5,3.1-6,4.6-10.5,4.6c-4.5,0-7.9-1.5-10.4-4.6c-2.5-3.1-3.7-7.4-3.7-13
						c0-5.6,1.2-9.9,3.7-13c2.5-3.1,5.9-4.6,10.4-4.6c4.5,0,8,1.5,10.5,4.6c2.5,3.1,3.7,7.4,3.7,13C139,95.7,137.8,100,135.3,103.1z
						"/>
					<polygon class="st2" points="162.4,106 162.4,64.8 152,64.8 152,115.3 187.1,115.3 187.1,106 					"/>
					<path class="st2" d="M211.9,64.8h-12l-18,50.6h11l3.3-10.4h19.6l3.4,10.4h10.9L211.9,64.8z M198.9,96.4l7-21.5l7,21.5H198.9z"
						/>
				</g>
				<g id="R_00000129901826761778803720000001652990448141462927_">
					<g>
						<g>
							<path class="st2" d="M237.6,103.9c0.1,0,0.2,0,0.4,0h0.1c0.8,0,1.4,0.2,1.8,0.7c0.4,0.4,0.7,1,0.7,1.8c0,0.5-0.1,0.9-0.3,1.3
								c-0.2,0.4-0.5,0.6-0.9,0.8c0.4,0.1,0.6,0.3,0.8,0.6c0.2,0.3,0.3,0.7,0.3,1.2l0.1,1.3v0c0,0.6,0.1,0.9,0.4,1v0.3h-1.7
								c-0.1-0.1-0.1-0.3-0.1-0.4s-0.1-0.4-0.1-0.8l0-1.1c0-0.6-0.2-1-0.4-1.1s-0.6-0.3-1.1-0.3h-0.3h-2v3.7h-1.5v-8.9H237.6z
								 M235.2,107.9h2.1c0.6,0,1.1-0.1,1.3-0.3c0.3-0.2,0.4-0.6,0.4-1.1c0-0.5-0.1-0.8-0.4-1c-0.3-0.2-0.7-0.3-1.3-0.3h-2.2V107.9z
								"/>
						</g>
					</g>
					<g>
						<g>
							<path class="st2" d="M237.3,116.1c-4.3,0-7.7-3.5-7.7-7.7s3.5-7.7,7.7-7.7c4.3,0,7.7,3.5,7.7,7.7S241.6,116.1,237.3,116.1z
								 M237.3,101.9c-3.6,0-6.5,2.9-6.5,6.5s2.9,6.5,6.5,6.5s6.5-2.9,6.5-6.5S240.9,101.9,237.3,101.9z"/>
						</g>
					</g>
				</g>
			</g>
		</g>
	</g>
	<g id="key_x5F_icon_00000152955068231518296000000001947260301869254560_">
		<g id="key_x5F_background_00000010308772432451058240000013211990723559235755_">
			<path id="key_x5F_bg_x5F_2_00000101081352677488520710000004463460625296030103_" class="st3" d="M142.7,26.6
				c-0.5-7.3,5.8-17.5,5.8-17.5l-4.8-9h-12.5c-2.3,1.8-6.2,2.5-6.2,2.5v0c-0.7-0.1-3.9-0.8-6-2.5h-12.5l-4.8,9
				c0,0,6.3,10.2,5.8,17.5c-0.5,7.6-3.8,11.2-7.3,15.2c0,0,5.5,8.5,8.9,10.4c3.3,1.8,12.9,4.9,16,7.6v0c3.2-2.7,12.9-5.8,16.2-7.6
				c3.3-1.8,8.9-10.4,8.9-10.4C146.6,37.8,143.2,34.2,142.7,26.6z"/>
			<path id="key_x5F_bg_00000167359195646827919510000013505750255646691516_" class="st4" d="M125,56.1c-2.5-1.5-5.9-2.9-9.3-4.3
				c-2.2-0.9-4.2-1.7-5.3-2.3c-1.5-0.8-4.4-4.4-6.5-7.5c3.1-3.7,6.1-7.8,6.6-15.2c0.4-6.5-3.6-14.5-5.4-17.8l3.2-5.9h9.8
				c2.5,1.6,5.5,2.2,6.4,2.4c0.2,0,0.4,0.1,0.6,0.1c0.2,0,0.4,0,0.6-0.1c0.8-0.1,3.9-0.8,6.5-2.4h9.8l3.2,5.9
				c-1.8,3.3-5.8,11.3-5.4,17.8c0.5,7.4,3.4,11.6,6.6,15.2c-2.1,3-5,6.7-6.5,7.5c-1.1,0.6-3.2,1.4-5.4,2.3
				C131,53.2,127.5,54.6,125,56.1z"/>
		</g>
		<path id="key_00000074425660089037228570000008304962921634257290_" class="st5" d="M127.4,38.4c0.2-0.5,0-1.1-0.5-1.7
			c0.6,0,1.1-0.2,1.3-0.5c0.2-0.4-0.1-1.1-0.6-1.7l12.4-21.5l-3.1-1.8l-1,1.8l-1.8-1l-1.8,3.1l-1.3-0.7l0.9-1.6l-3.7-2.2l-1,1.7
			l-1.3-0.7l1.9-3.2l-2.6-1.5l-7.7,13.3l2.6,1.5l1.8-3l1.3,0.7l-0.9,1.6l3.7,2.2l1-1.7l1.3,0.7l-1.8,3.2l1.8,1l-3.8,6.7
			c-0.7-0.1-1.3,0.1-1.5,0.5c-0.2,0.3-0.1,0.8,0.3,1.2c-0.9-0.1-1.6,0.1-1.8,0.5c-4-0.9-7.9,0.4-9.5,3.5c-1.9,3.9,0.5,9,5.4,11.5
			c4.9,2.5,10.5,1.4,12.5-2.5c1.5-2.9,0.4-6.6-2.3-9.2C127.3,38.5,127.4,38.5,127.4,38.4z M127.5,18.6l-0.5-0.3l-0.1,0l-1.4,2.5
			l-1-0.6l1.4-2.5l-0.7-0.4l1.2-2.2l0.7,0.4l1.5-2.5l1,0.6l-1.5,2.5l0.1,0l0.5,0.3L127.5,18.6z M125.9,46c-1.2,2.3-4.5,2.9-7.4,1.5
			c-2.9-1.5-4.4-4.5-3.2-6.8c0.6-1.2,1.8-1.9,3.2-2.2c0.8,0.2,1.7,0.7,1.1,2c-1,2-2,0.2-2,0.2s-0.1,3.1,3.1,2.9c1.4,2.6,3.9,1,3.9,1
			s-2,0-0.8-1.9c0.8-1.1,1.7-0.6,2.3,0C126.4,43.8,126.4,45,125.9,46z"/>
		<g id="key_x5F_shadow_00000173873110005756193930000002587945330263035317_">
			<rect x="123.2" y="8.7" transform="matrix(0.866 0.5 -0.5 0.866 24.1225 -59.7185)" class="st6" width="0.7" height="12.9"/>
			<rect x="131.5" y="13.4" transform="matrix(0.866 0.5 -0.5 0.866 27.5972 -63.2404)" class="st6" width="0.7" height="12.9"/>
			<path class="st6" d="M138.2,13.5l-11.2,19.3c-0.6,0.2-1.2,0.3-1.2,0.3l0.8,0.5l0,0l0.6,0.3l11.6-20.1L138.2,13.5z"/>
			<polygon class="st6" points="126.5,36.3 123.7,34.7 123.7,34 127.2,36 			"/>
			<polygon class="st6" points="126.2,37.4 123.1,35.6 122.4,35.9 126.5,38.2 			"/>
			<path class="st6" d="M118.4,37.9c0,0-3.8-0.5-4.1,4.2C114.3,42.1,112.8,36.7,118.4,37.9z"/>
			<path class="st6" d="M122.8,43.6c0,0-0.9-3.3,2.2-2.2C124.9,41.4,123.3,40.9,122.8,43.6"/>
			<path class="st6" d="M128.3,42.8c0,0,1.2,7.7-7.8,7.5C120.5,50.4,130.3,52.6,128.3,42.8z"/>
		</g>
	</g>
</g>
</svg>
